<svg version="1.1" id="Layer_1" xmlns="http://www.w3.org/2000/svg" xmlns:xlink="http://www.w3.org/1999/xlink" x="0px" y="0px"
	 width="100%" viewBox="0 0 720 720" enable-background="new 0 0 720 720" xml:space="preserve">
<path fill="#000000" opacity="1.000000" stroke="none" 
	d="
M440.283569,332.209839 
	C440.202362,337.681427 440.211273,342.681061 439.987823,347.670288 
	C439.816589,351.493286 437.949219,353.846222 433.812714,354.079681 
	C429.997192,354.295013 426.195679,355.046234 422.387177,355.052551 
	C380.742432,355.121490 339.097534,355.102783 297.452698,355.072906 
	C291.455566,355.068604 291.467377,354.552673 290.919678,348.422211 
	C290.092285,339.161377 292.837952,331.801636 298.641846,324.281586 
	C329.162964,284.735748 359.092377,244.733200 389.217224,204.881668 
	C390.294891,203.456085 391.268066,201.951523 392.549286,200.111237 
	C388.779327,200.111237 385.538208,200.108749 382.297089,200.111633 
	C356.643768,200.134476 330.990448,200.175552 305.337128,200.169785 
	C298.878052,200.168335 298.742737,199.988754 298.697723,193.330673 
	C298.658325,187.500641 298.806671,181.666870 298.644958,175.841049 
	C298.550995,172.454376 299.839935,170.960876 303.269257,170.995148 
	C339.404266,171.356461 375.571991,169.742325 411.660889,172.262375 
	C418.723053,172.755524 425.586395,171.811234 432.548981,171.890717 
	C436.937012,171.940811 439.116760,173.662170 438.932770,178.126938 
	C438.734436,182.941330 438.558502,187.756699 438.386414,192.572128 
	C438.334808,194.015198 437.452179,195.015610 436.638062,196.073685 
	C404.045959,238.431290 371.456635,280.791046 338.881378,323.161560 
	C338.087708,324.193878 337.457214,325.351562 336.753693,326.446014 
	C338.279358,328.514343 340.269470,327.629395 341.931854,327.633179 
	C372.582611,327.702332 403.233521,327.683350 433.884338,327.733429 
	C436.742004,327.738098 440.323669,326.931122 440.283569,332.209839 
M406.738953,189.974686 
	C406.554413,191.860703 405.178558,193.748672 406.913666,195.937439 
	C412.230469,195.758362 417.579742,195.030731 422.399658,193.577744 
	C423.769440,191.812424 421.572418,190.264297 423.122131,188.876450 
	C423.503479,188.825058 423.981934,188.729263 424.464417,188.700455 
	C428.858337,188.438095 431.884186,185.552307 431.706116,181.639816 
	C431.498474,177.079422 427.935059,177.298676 424.815826,176.983261 
	C423.827209,176.883286 422.822144,176.941956 421.824554,176.935104 
	C409.255463,176.848770 409.255463,176.849106 406.738953,189.974686 
M314.552094,339.006226 
	C318.274963,336.768585 323.870667,337.036591 325.130890,330.815979 
	C316.980713,331.686829 309.127136,332.773102 301.367554,334.645111 
	C298.782074,335.268890 298.505127,337.111267 298.248993,339.096771 
	C297.961456,341.325500 298.183319,343.560181 300.097382,345.009216 
	C302.057465,346.493103 303.392792,344.604492 304.954681,343.776825 
	C307.888580,342.222107 310.915161,340.842346 314.552094,339.006226 
z"/>
<path fill="#000000" opacity="1.000000" stroke="none" 
	d="
M175.698334,294.263367 
	C202.673370,307.789398 229.289520,321.200592 256.003021,334.414978 
	C259.613922,336.201141 261.276276,338.263733 261.074524,342.431488 
	C260.739563,349.350159 260.983307,356.296875 260.983307,362.813568 
	C258.578308,364.141510 257.362061,363.011597 256.081543,362.353088 
	C218.173035,342.860474 180.270569,323.356110 142.365845,303.856171 
	C124.449989,294.639465 106.573112,285.345184 88.577950,276.285950 
	C85.088547,274.529327 84.292580,272.195740 83.788834,268.506256 
	C82.226059,257.060425 86.037056,250.621216 97.120560,245.257568 
	C134.581329,227.129181 171.340973,207.551056 208.353348,188.497437 
	C223.603790,180.646637 238.804840,172.699844 254.058304,164.854950 
	C255.905228,163.905075 257.625183,162.304703 259.905029,162.872543 
	C261.449554,164.096863 261.000488,165.697327 261.019745,167.139099 
	C261.070953,170.970612 260.636688,174.855850 261.127350,178.624435 
	C262.147675,186.460983 259.107056,190.498550 251.774124,194.082077 
	C208.092728,215.428543 164.740036,237.447693 121.284073,259.255127 
	C119.103989,260.349182 116.989975,261.574860 113.803276,263.304901 
	C134.984650,273.895020 155.177353,283.990814 175.698334,294.263367 
z"/>
<path fill="#000000" opacity="1.000000" stroke="none" 
	d="
M481.060760,166.880554 
	C506.745148,179.997620 532.116211,192.910568 557.453064,205.890274 
	C586.195923,220.614838 614.898560,235.418060 643.650574,250.124680 
	C646.181519,251.419296 647.559143,253.106323 647.239258,255.995987 
	C647.202820,256.325165 647.177734,256.672943 647.241577,256.993317 
	C649.860535,270.136627 643.946472,276.548462 631.965149,282.376343 
	C588.562439,303.488007 545.897461,326.116486 502.955292,348.174866 
	C493.478485,353.042877 484.009003,357.925262 474.528320,362.785736 
	C473.651398,363.235321 472.745087,363.742523 470.905579,362.914398 
	C470.905579,354.901489 470.712677,346.509369 471.031799,338.136780 
	C471.119232,335.843079 474.058594,335.245453 475.931335,334.309723 
	C495.593262,324.485565 515.304016,314.759216 534.976624,304.956421 
	C561.354431,291.812439 587.711853,278.627533 614.070923,265.445984 
	C615.092590,264.935059 616.040344,264.276367 616.974365,263.715546 
	C616.920776,261.523010 615.132385,261.295105 613.931335,260.697205 
	C568.188843,237.925751 522.454529,215.137253 476.610107,192.572479 
	C472.276581,190.439529 470.268188,188.100372 470.582947,183.146423 
	C471.002380,176.545319 470.686554,169.897491 470.686554,163.020493 
	C474.951508,162.932205 477.609711,165.461746 481.060760,166.880554 
z"/>
<path fill="#000000" opacity="1.000000" stroke="none" 
	d="
M635.018005,480.031067 
	C639.338684,480.025604 643.164673,480.031525 646.990356,480.004272 
	C648.983032,479.990051 650.662964,479.580688 650.672363,477.030029 
	C650.681946,474.423859 648.941406,474.135406 646.971375,474.130463 
	C639.984985,474.112854 632.997498,474.033020 626.012695,474.133179 
	C622.641418,474.181549 621.275940,473.007965 621.464417,469.423340 
	C621.707886,464.790588 621.463196,460.119110 621.200623,455.477203 
	C621.015381,452.204346 621.896606,450.549255 625.575867,450.611847 
	C635.387390,450.778839 645.204651,450.756439 655.017334,450.629974 
	C658.253296,450.588257 659.377319,451.804688 659.401611,455.011932 
	C659.427368,458.409088 657.888672,459.286041 654.843323,459.241241 
	C648.024902,459.140961 641.203613,459.252869 634.383545,459.238892 
	C632.017090,459.234039 629.986694,459.479919 630.095398,462.623444 
	C630.193481,465.460083 632.083252,465.662323 634.238403,465.659363 
	C641.224854,465.649750 648.211426,465.654022 655.197693,465.697205 
	C657.012756,465.708405 659.174866,465.532135 659.206848,468.220886 
	C659.285400,474.816986 659.232544,481.414703 659.232544,488.687347 
	C647.038513,488.687347 635.442322,488.689392 623.846130,488.685638 
	C621.360474,488.684845 621.398682,486.965454 621.511169,485.210480 
	C621.652954,482.998962 620.873657,480.210663 624.544739,480.136139 
	C627.870239,480.068573 631.197021,480.062073 635.018005,480.031067 
z"/>
<path fill="#000000" opacity="1.000000" stroke="none" 
	d="
M418.607910,488.057007 
	C406.988312,488.478790 395.681824,488.575165 384.376465,488.747681 
	C381.518433,488.791290 381.016388,486.985596 381.131439,484.821594 
	C381.670837,474.677002 381.851440,464.537170 381.221893,454.388641 
	C381.098114,452.393036 381.641907,450.709259 384.176483,450.710907 
	C395.629333,450.718292 407.082214,450.714142 419.356750,450.714142 
	C419.152527,463.304993 419.821472,475.524017 418.607910,488.057007 
M400.492584,459.228516 
	C398.174133,459.238617 395.855530,459.270416 393.537292,459.252502 
	C391.336182,459.235504 390.086487,460.199280 390.083191,462.487885 
	C390.074921,468.229034 390.080444,473.970215 390.080444,480.031464 
	C393.315979,480.031464 396.424103,480.070709 399.530975,480.024597 
	C412.380737,479.833984 410.714478,481.783020 410.754333,468.578308 
	C410.785217,458.331970 411.929871,459.286194 400.492584,459.228516 
z"/>
<path fill="#000000" opacity="1.000000" stroke="none" 
	d="
M461.569397,464.125092 
	C461.476227,461.153870 461.454803,458.657959 461.270660,456.174133 
	C461.043152,453.105072 460.996735,450.602020 465.361420,450.582672 
	C469.272034,450.565369 470.155762,452.311707 470.093933,455.757019 
	C469.951416,463.698395 470.048706,471.644104 470.048706,479.985138 
	C475.850342,479.985138 481.612488,479.987701 487.374634,479.983826 
	C489.609863,479.982330 490.747711,478.889740 490.739227,476.618073 
	C490.732422,474.788696 490.790924,472.959137 490.795654,471.129608 
	C490.824463,459.967773 490.827454,459.871674 479.954224,459.268341 
	C476.900970,459.098938 475.890167,457.816132 475.870697,454.966644 
	C475.851471,452.154327 476.696411,450.581909 479.841583,450.645172 
	C485.494659,450.758850 491.151855,450.657379 496.807190,450.680298 
	C497.436890,450.682861 498.065674,450.909119 499.002380,451.091522 
	C499.002380,463.437775 499.002380,475.652649 499.002380,488.413300 
	C492.055115,488.413300 485.302094,488.402039 478.549164,488.417572 
	C474.557892,488.426758 470.499176,488.031982 466.592499,488.623230 
	C461.665070,489.368896 460.889404,487.120300 461.095703,483.049103 
	C461.406799,476.909088 461.425812,470.754303 461.569397,464.125092 
z"/>
<path fill="#000000" opacity="1.000000" stroke="none" 
	d="
M85.374741,470.324829 
	C83.019226,473.513489 80.867043,476.408295 78.169052,480.037262 
	C83.656403,480.037262 88.244286,480.009460 92.831711,480.043762 
	C99.689194,480.095032 100.344009,481.039612 98.566071,488.185242 
	C86.438332,488.185242 74.309235,488.185242 61.115314,488.185242 
	C68.324959,478.394867 74.884102,469.487854 82.438080,459.229889 
	C76.222855,459.229889 71.347321,459.161285 66.474892,459.254517 
	C63.340069,459.314484 60.909065,459.095825 61.009457,454.858368 
	C61.109077,450.653442 63.603962,450.606354 66.670952,450.631714 
	C75.820847,450.707428 84.971886,450.636688 94.122246,450.675812 
	C95.562202,450.681976 97.119118,450.303833 99.054642,451.949890 
	C94.582085,457.950592 90.080078,463.990814 85.374741,470.324829 
z"/>
<path fill="#000000" opacity="1.000000" stroke="none" 
	d="
M318.225769,480.039368 
	C323.351929,480.041748 328.008942,480.027130 332.665741,480.050110 
	C339.661407,480.084625 340.231079,480.853363 338.571747,488.417084 
	C329.404755,488.417084 320.142822,488.407288 310.880890,488.419678 
	C301.076294,488.432800 301.232452,488.445709 301.466644,478.409485 
	C301.640808,470.947266 301.519165,463.466125 301.181976,456.009094 
	C301.012939,452.271179 301.834900,450.497772 306.010773,450.595459 
	C315.652039,450.820923 325.303040,450.752625 334.947906,450.630615 
	C338.114838,450.590546 339.390930,451.660278 339.397644,454.938324 
	C339.404449,458.256409 338.028320,459.302399 334.909637,459.250305 
	C328.092712,459.136444 321.270721,459.316467 314.454041,459.195251 
	C311.255981,459.138367 309.935577,460.393860 310.011841,463.600922 
	C310.137726,468.892761 310.046051,474.189758 310.046051,480.039246 
	C312.573395,480.039246 315.164978,480.039246 318.225769,480.039368 
z"/>
<path fill="#000000" opacity="1.000000" stroke="none" 
	d="
M178.406219,453.108032 
	C177.022568,455.239380 175.793747,457.014435 174.606781,458.817108 
	C168.738754,467.729126 160.852142,475.896027 164.728714,487.894348 
	C156.374969,489.356049 155.516647,488.968719 155.965286,482.042206 
	C156.367249,475.836273 154.531250,470.771271 150.915802,465.907379 
	C147.605988,461.454681 144.772659,456.647827 141.627747,451.841797 
	C149.118423,449.461243 151.118546,450.091919 154.839630,455.421753 
	C156.438156,457.711456 158.120316,459.942749 159.977509,462.493134 
	C163.478592,459.979309 164.936203,456.362305 167.208160,453.424438 
	C170.034470,449.769806 176.155975,449.420441 178.406219,453.108032 
z"/>
<path fill="#000000" opacity="1.000000" stroke="none" 
	d="
M255.253418,488.484070 
	C244.844086,488.543152 234.871323,488.576141 224.900940,488.747375 
	C222.688705,488.785370 221.178757,488.353577 221.484451,485.824646 
	C221.750702,483.622009 220.299988,480.224121 224.377304,480.177216 
	C235.015640,480.054749 245.656662,480.089935 256.295868,480.167175 
	C259.391113,480.189667 259.290466,482.564148 259.354919,484.822113 
	C259.429718,487.443481 258.746979,489.099121 255.253418,488.484070 
z"/>
<path fill="#000000" opacity="1.000000" stroke="none" 
	d="
M549.209595,480.034180 
	C557.979858,480.031799 566.279602,480.104187 574.577026,479.994965 
	C578.225037,479.946991 579.455383,481.457336 579.416321,485.088074 
	C579.372986,489.110931 576.996216,488.500916 574.431274,488.487274 
	C564.972900,488.436981 555.512817,488.457581 546.055664,488.598877 
	C543.612732,488.635376 541.321960,489.263214 541.437256,485.466034 
	C541.530090,482.410492 541.475525,479.635315 545.752258,480.044220 
	C546.738220,480.138489 547.742432,480.043213 549.209595,480.034180 
z"/>
<path fill="#000000" opacity="1.000000" stroke="none" 
	d="
M225.852524,465.659454 
	C237.046661,465.661041 247.829514,465.661041 258.488556,465.661041 
	C260.265106,473.266418 259.648468,474.122406 252.662201,474.138489 
	C243.673492,474.159210 234.684647,474.112366 225.695953,474.133911 
	C222.744690,474.140961 221.041306,473.305023 221.183167,469.801971 
	C221.307266,466.737488 221.974655,464.952759 225.852524,465.659454 
z"/>
<path fill="#000000" opacity="1.000000" stroke="none" 
	d="
M579.321106,469.314392 
	C579.749939,473.540283 577.405090,474.155945 574.378967,474.143829 
	C565.732788,474.109222 557.086487,474.139465 548.440186,474.128113 
	C540.778809,474.118011 540.549438,473.829468 541.955261,465.663452 
	C553.462830,465.663452 565.059692,465.687408 576.656372,465.643646 
	C579.023071,465.634735 579.374023,467.034546 579.321106,469.314392 
z"/>
<path fill="#000000" opacity="1.000000" stroke="none" 
	d="
M259.232300,456.842468 
	C258.511200,459.456421 256.677582,459.198944 255.067810,459.204193 
	C245.277542,459.236206 235.486649,459.164917 225.696991,459.248688 
	C222.649567,459.274750 221.040405,458.295776 221.077850,454.978943 
	C221.113174,451.851044 222.301132,450.567474 225.549194,450.617706 
	C235.005463,450.763885 244.472473,450.882172 253.921005,450.574280 
	C258.483154,450.425598 259.942780,452.180603 259.232300,456.842468 
z"/>
<path fill="#000000" opacity="1.000000" stroke="none" 
	d="
M564.993652,450.661682 
	C568.808960,450.669342 572.130859,450.793304 575.441406,450.651459 
	C578.597290,450.516235 579.364014,452.110901 579.374878,454.917023 
	C579.385742,457.730316 578.606140,459.263977 575.464233,459.235962 
	C565.348328,459.145660 555.230957,459.165070 545.114563,459.219330 
	C542.070007,459.235657 541.011108,457.839844 541.200439,454.905975 
	C541.367432,452.318573 541.738770,450.503235 545.093079,450.611694 
	C551.554260,450.820557 558.027283,450.665802 564.993652,450.661682 
z"/>
</svg>